<svg xmlns="http://www.w3.org/2000/svg" viewBox="0 0 761 126.06"><defs><style>.cls-1{fill:#ff8c00;}.cls-2{fill:#fff;}</style></defs><title>infi-toast white</title><g id="Layer_2" data-name="Layer 2"><g id="Isolation_Mode" data-name="Isolation Mode"><path class="cls-1" d="M377.37,27.84h25.2V42.93H413.9V63.72H402.57V87.24c0,5,5.2,5.7,9.2,5.7.93,0,2.53-.13,2.53-.13V115a38.76,38.76,0,0,1-9.33.82c-18.13,0-28.26-9-28.26-28.27V63.72H370V42.93h7.33Z"/><path class="cls-1" d="M457.48,116.46c-22.26,0-39.19-15.9-39.19-37.65s16.93-37.65,39.19-37.65,39.19,15.9,39.19,37.65S479.75,116.46,457.48,116.46Zm0-22.7c7.74,0,13.33-5.84,13.33-15s-5.59-15.09-13.33-15.09-13.33,6-13.33,15.09S449.75,93.76,457.48,93.76Z"/><path class="cls-1" d="M526.4,68.48a29.09,29.09,0,0,1,12.53,2.72V69c0-2.85-2.67-5.7-9.2-5.7a42.4,42.4,0,0,0-17.2,4.07l-9.59-17.12c7.59-5.3,19.32-9.11,29.85-9.11,25.46,0,32,14.14,32,30.85v42.68h-23.2l-1.46-3.94c-3.87,4.08-9.87,5.71-16.67,5.71-12.66,0-24.92-8-24.92-24.06C498.54,78,509.33,68.48,526.4,68.48Zm5.46,28.41c3.73,0,7.47-1.64,7.47-5.44s-3.47-5.71-7.6-5.71c-3.87,0-7.33,2-7.33,5.71S528.13,96.89,531.86,96.89Z"/><path class="cls-1" d="M582.64,90.63a26.74,26.74,0,0,0,15.07,5c3.46,0,4.8-1.22,4.8-2.58,0-6-31.73-3.4-31.73-28.68,0-14.13,12.53-23.24,28.79-23.24,13.07,0,21.6,6,26.53,11.83L609.44,66.44c-2.53-2.31-5.87-4.62-10.4-4.62-2.8,0-4,1.22-4,2.45,0,7.06,32.13,4.21,32.13,28,0,15.9-12.13,24.19-29.33,24.19-13.2,0-24.79-6-29.33-11.42Z"/><path class="cls-1" d="M635.16,27.84h25.19V42.93h11.34V63.72H660.35V87.24c0,5,5.2,5.7,9.2,5.7.94,0,2.53-.13,2.53-.13V115a38.76,38.76,0,0,1-9.33.82c-18.12,0-28.26-9-28.26-28.27V63.72h-6.66V42.93h7.33Z"/><path class="cls-2" d="M188.82,68.88V114.5H162.74V72.77c0-5.37-3.23-7.92-7.53-7.92-5.11,0-7.53,3.49-7.53,7.52V114.5H121.6V43.66H147v6.7c2.55-3.62,9-8.45,17.74-8.45C181.56,41.91,188.82,52.51,188.82,68.88Z"/><path class="cls-2" d="M200,64.18h-7.4V43.66H200V42.31c0-18.78,14.38-28.49,30.24-28.49a54.94,54.94,0,0,1,7.67.54v21.2a20.67,20.67,0,0,0-3.77-.41,8.06,8.06,0,0,0-7.93,7.57v.94h10.22V64.18H226.24V114.5H200Z"/><path class="cls-2" d="M242.1,43.66h26.09V114.5H242.1Z"/><path class="cls-2" d="M355.3,59.08V85.16H282.81V59.08Z"/><rect class="cls-1" x="89.29" y="14.98" width="26.42" height="20.88"/><polygon class="cls-2" points="115.71 43.49 115.71 72.12 89.29 114.39 89.29 43.49 115.71 43.49"/><rect class="cls-2" x="241.98" y="14.98" width="26.42" height="20.71"/><polygon class="cls-1" points="0 126.06 47.14 0 76.49 0 29.35 126.06 0 126.06"/><polygon class="cls-1" points="684.51 126.06 731.65 0 761 0 713.86 126.06 684.51 126.06"/></g></g></svg>